inDegrees=yes
name=ik_rai_1
DataType=double
version=3
OpenSimVersion=4.5
endheader
time	gndpitch	gndroll	gndyaw	spine_tx	spine_ty	spine_tz	pitch2	roll2	yaw2	aux7jnt_r3	aux7jnt_r1	aux7jnt_r2	aux6jnt_r3	aux6jnt_r1	aux6jnt_r2	aux5jnt_r3	aux5jnt_r1	aux5jnt_r2	aux4jnt_r3	aux4jnt_r1	aux4jnt_r2	aux3jnt_r3	aux3jnt_r1	aux3jnt_r2	pitch1	roll1	yaw1	aux1jnt_r3	aux1jnt_r1	aux1jnt_r2
0	4.21296440140691e-09	8.002416233845703e-10	4.440363815649541e-10	-3.97872216927308e-17	8.44526185968539e-17	-7.30666612219483e-19	1.19195223573577e-06	-7.41742501311171e-34	-1.94073162038987e-33	1.277095802324484e-05	0	0	1.502461967032837e-05	0	0	1.502461967032837e-05	0	0	1.126846475274626e-05	0	0	7.512309835164213e-06	0	0	1.57416137518302e-06	-1.88940466950217e-33	1.27484214121148e-34	5.014717369767992e-05	0	0
0.025	4.21296440140691e-09	8.002416233845703e-10	4.440363815649541e-10	-3.97872216927308e-17	8.44526185968539e-17	-7.30666612219483e-19	-0.00139057641104767	6.318333415240027e-05	-4.638184837990928e-05	-0.01489908105440484	0.0004959585228226737	-0.0004996069608358498	-0.01752828768761733	0.0005683621201458436	-0.0005819886195353171	-0.01752828768761733	0.0007819493098461747	-0.0005819886195353171	-0.01314621576571379	0.0007819493098461747	-0.0005819886195353171	-0.008764143843808664	0.0007095477867078098	-0.0002498034804179249	0.001485236854416538	-0.0001773754057862079	-3.908410049056905e-05	0.04731435525089114	-0.005081431070482131	-0.0002485687691937242
0.05	4.21296440140691e-09	8.002416233845703e-10	4.440363815649541e-10	-3.97872216927308e-17	8.44526185968539e-17	-7.30666612219483e-19	-0.00276396607398728	0.0007980814052295009	-8.20338182627155e-05	-0.02961401778485271	0.006264551881284183	-0.0008836359062735063	-0.03483993552513134	0.007179096285614498	-0.001029341225358075	-0.03483993552513134	0.009876959049295315	-0.001029341225358075	-0.02612995164384692	0.009876959049295315	-0.001029341225358075	-0.01741996776256567	0.008962440844418567	-0.0004418179531367532	0.002839818337301625	-0.001051298674334449	-6.96918992419914e-05	0.09046649580471501	-0.03011748852353046	-0.0004432295844062807
0.07500000000000001	4.21296440140691e-09	8.002416233845703e-10	4.440363815649541e-10	-3.97872216927308e-17	8.44526185968539e-17	-7.30666612219483e-19	-0.00433846970297563	0.0006036807077890155	-0.000128846080084813	-0.04648375396215395	0.004738600710270296	-0.001387879110794573	-0.05468663532159319	0.005430375771930349	-0.001616730572413704	-0.05468663532159319	0.00747107950468499	-0.001616730572413704	-0.0410149764911933	0.00747107950468499	-0.001616730572413704	-0.02734331766079659	0.006779324260686586	-0.0006939395553972865	0.004394146074371587	-0.0008963081336571322	-0.0001086678372187841	0.1399818404511661	-0.0256773366009027	-0.0006911104569231655
0.1	4.21296440140691e-09	8.002416233845703e-10	4.440363815649541e-10	-3.97872216927308e-17	8.44526185968539e-17	-7.30666612219483e-19	-0.007647597109476182	0.002150154446786904	-5.384418138132835e-05	-0.08193880487277805	0.01687766936606918	-0.0005799882660609034	-0.09639835768025729	0.01934159310226123	-0.0006756242341912311	-0.09639835768025729	0.02661005165816455	-0.0006756242341912311	-0.07229876826019456	0.02661005165816455	-0.0006756242341912311	-0.04819917884012864	0.02414619850734735	-0.0002899941330304517	0.007768811443896747	-0.002581670113975818	-0.0002734968059857381	0.2474866573911683	-0.07395940081293921	-0.001739396930952344
0.125	4.21296440140691e-09	8.002416233845703e-10	4.440363815649541e-10	-3.97872216927308e-17	8.44526185968539e-17	-7.30666612219483e-19	0.009034719311751583	-0.0004828483469030597	-0.002506992946958653	0.09680087642804815	-0.003790125293165649	-0.02700433835241403	0.1138831048873882	-0.004343435082002249	-0.03145716299250913	0.1138831048873882	-0.005975672804969156	-0.03145716299250913	0.08541232866554274	-0.005975672804969156	-0.03145716299250913	0.05694155244369409	-0.005422378867102415	-0.01350216917620702	-0.009191397759854263	0.0001121932225210271	0.001963592701103704	-0.2928051896697861	0.003214099070211451	0.01248814261514834
0.15	4.21296440140691e-09	8.002416233845703e-10	4.440363815649541e-10	-3.97872216927308e-17	8.44526185968539e-17	-7.30666612219483e-19	0.007460365960019118	-0.0006847170617249116	-0.002445374673631949	0.07993275036940073	-0.005374696777884013	-0.02634061063685638	0.09403829934351909	-0.006159333725002832	-0.03068399126511922	0.09403829934351909	-0.008473975630427184	-0.03068399126511922	0.07052872450763853	-0.008473975630427184	-0.03068399126511922	0.04701914967175955	-0.007689361161235047	-0.01317030531842819	-0.007258269542166637	0.0002510697407984916	0.001989746513899831	-0.2312226111300666	0.007192618255600018	0.01265447677596673
0.175	4.21296440140691e-09	8.002416233845703e-10	4.440363815649541e-10	-3.97872216927308e-17	8.44526185968539e-17	-7.30666612219483e-19	0.005814761912742997	-0.0008092148656384289	-0.00241177465425521	0.06230122153787505	-0.006351944144646136	-0.02597868449222897	0.073295375091814	-0.007279246701031247	-0.03026238605583123	0.073295375091814	-0.01001474541020695	-0.03026238605583123	0.05497153131885971	-0.01001474541020695	-0.03026238605583123	0.036647687545907	-0.009087469418769643	-0.01298934224611449	-0.005436149977049901	0.0003117348058182989	0.001889312942648392	-0.1731763728097812	0.008930544350357682	0.01201573496335346
0.2	4.21296440140691e-09	8.002416233845703e-10	4.440363815649541e-10	-3.97872216927308e-17	8.44526185968539e-17	-7.30666612219483e-19	0.004166685056437798	-0.0006165991403833462	-0.002422316507393918	0.04464319823840173	-0.004840004139397479	-0.02609223717268956	0.05252128095422103	-0.00554658280400457	-0.03039466277117919	0.05252128095422103	-0.007630956465707751	-0.03039466277117919	0.03939096071566497	-0.007630956465707751	-0.03039466277117919	0.02626064047711051	-0.00692439804285013	-0.01304611858634478	-0.003677107818639883	8.694383988947368e-05	0.00178555752709257	-0.1171395559634831	0.00249075754016555	0.01135586674026003
0.225	4.21296440140691e-09	8.002416233845703e-10	4.440363815649541e-10	-3.97872216927308e-17	8.44526185968539e-17	-7.30666612219483e-19	0.002371490018947671	-0.0005660923952951916	-0.002412384653214617	0.02540890362536105	-0.004443550691307778	-0.02598525516021509	0.02989275452264576	-0.005092252226090464	-0.03027004018055076	0.02989275452264576	-0.007005891090573702	-0.03027004018055076	0.02241956589198591	-0.007005891090573702	-0.03027004018055076	0.01494637726132288	-0.006357208139501145	-0.01299262758010754	-0.001764028329806584	3.821503380424743e-05	0.001687864484304354	-0.05619565850450799	0.001094780075464556	0.01073455426025366
0.25	4.21296440140691e-09	8.002416233845703e-10	4.440363815649541e-10	-3.97872216927308e-17	8.44526185968539e-17	-7.30666612219483e-19	-0.00102180987086716	-0.0004655110624385287	-0.002382193339666231	-0.01094799823101277	-0.003654036020447666	-0.02566004624913285	-0.0128799663479925	-0.004187478517064496	-0.02989120661725577	-0.0128799663479925	-0.00576110866707786	-0.02989120661725577	-0.009659974760995168	-0.00576110866707786	-0.02989120661725577	-0.006439983173996248	-0.005227681452282441	-0.01283002312456643	0.001746971669595462	-6.885359758789849e-05	0.0015983460716847	0.0556522940719474	-0.001972510273041459	0.01016523115019754
0.275	4.21296440140691e-09	8.002416233845703e-10	4.440363815649541e-10	-3.97872216927308e-17	8.44526185968539e-17	-7.30666612219483e-19	-0.006427336624050016	0.0002740253808250126	-0.002474204157343476	-0.06886454319581169	0.002150966309600469	-0.02665115045453523	-0.08101691105679079	0.002464979863903268	-0.0310457369051329	-0.08101691105679079	0.003391305006157235	-0.0310457369051329	-0.0607626832925923	0.003391305006157235	-0.0310457369051329	-0.0405084555283954	0.003077300447574929	-0.01332557522726762	0.00702718747887266	-0.0008708733658502371	0.001638044198945028	0.2238611597882828	-0.02494868417678817	0.01041770503365864
